<svg viewBox="0 0 60 60" fill="none" xmlns="http://www.w3.org/2000/svg">
    <g clip-path="url(#clip0_514_2083)">
        <path d="M55.0117 15.6866L51.0852 9.52539L5 23.3637V39.5365L10.5276 43.5797L12.7542 50.3817L18.7157 41.1057L55.0117 30.2961V15.6866Z"
              fill="#202021"></path>
        <path d="M11.2905 32.495C10.3448 32.762 9.6894 32.1747 9.70437 31.175C9.70725 30.6798 9.86634 30.1979 10.1594 29.7968C10.4524 29.3957 10.8646 29.0955 11.3384 28.9383C12.2721 28.6743 12.9635 29.235 12.9515 30.2524C12.9409 30.7502 12.7757 31.2326 12.4785 31.6339C12.1813 32.0352 11.7664 32.3359 11.2905 32.495ZM14.6693 23.6641L13.0084 24.1357L12.9665 27.2682C12.465 27.0413 11.8943 27.0158 11.3743 27.197C9.56371 27.7102 8.06734 29.6977 8.04041 31.6467C8.01347 33.5956 9.47093 34.7287 11.2815 34.2156C13.0921 33.7024 14.5736 31.7208 14.5885 29.7867L14.6693 23.6641Z"
              fill="white"></path>
        <path d="M18.5418 30.4024C17.608 30.6694 16.9167 30.1058 16.9287 29.0912C16.9371 28.593 17.1014 28.1096 17.3989 27.7078C17.6965 27.3061 18.1125 27.0059 18.5896 26.8486C19.5353 26.5787 20.1908 27.1453 20.1788 28.1687C20.1751 28.6637 20.0152 29.1452 19.7217 29.5458C19.4282 29.9463 19.0156 30.2458 18.5418 30.4024ZM18.5986 25.1133C16.803 25.6265 15.3066 27.611 15.2797 29.5629C15.2527 31.5148 16.6982 32.648 18.5058 32.1348C20.3135 31.6216 21.7979 29.6371 21.8278 27.703C21.8577 25.7689 20.4212 24.6001 18.5986 25.1163"
              fill="white"></path>
        <path d="M25.749 28.1993C24.8033 28.4692 24.124 27.9026 24.136 26.8881C24.1435 26.3896 24.3075 25.9058 24.6051 25.5039C24.9028 25.102 25.3194 24.802 25.7969 24.6455C26.7337 24.3785 27.398 24.9422 27.3861 25.9656C27.3824 26.4606 27.2225 26.9421 26.929 27.3427C26.6354 27.7432 26.2229 28.0427 25.749 28.1993ZM25.8089 22.9102C23.9863 23.4293 22.5019 25.4109 22.475 27.3598C22.448 29.3087 23.8935 30.4448 25.7161 29.9287C27.5387 29.4125 29.0081 27.431 29.0351 25.4969C29.062 23.5628 27.6165 22.397 25.8089 22.9102Z"
              fill="white"></path>
        <path d="M32.9074 26.1337C31.9737 26.3977 31.3063 25.8134 31.3212 24.8137C31.3241 24.3185 31.4832 23.8366 31.7762 23.4355C32.0693 23.0344 32.4815 22.7342 32.9553 22.577C33.904 22.31 34.5833 22.8736 34.5684 23.8911C34.56 24.3894 34.3956 24.8728 34.0981 25.2745C33.8006 25.6763 33.3845 25.9765 32.9074 26.1337ZM36.2862 17.3027L34.6252 17.7744L34.5833 20.9099C34.0832 20.6782 33.511 20.6515 32.9912 20.8357C31.1955 21.3459 29.6992 23.3334 29.6722 25.2853C29.6453 27.2372 31.1028 28.3674 32.8984 27.8572C34.6941 27.347 36.1904 25.3654 36.2054 23.4284L36.2862 17.3057"
              fill="white"></path>
        <path d="M38.9583 16.5762L37.3093 17.0449L37.1836 26.564L38.8326 26.0479L38.9583 16.5762Z" fill="white"></path>
        <path d="M41.7662 18.4102L40.1172 18.8789L40.0274 25.6749L41.6764 25.1528L41.7662 18.4102ZM40.9881 15.8146C40.7036 15.9067 40.4543 16.0828 40.2736 16.3192C40.0928 16.5557 39.9892 16.8412 39.9766 17.1376C39.9766 17.7309 40.3926 18.0809 40.9612 17.9207C41.2436 17.8234 41.4893 17.6428 41.6653 17.4031C41.8413 17.1635 41.9392 16.8762 41.9458 16.5799C41.9625 16.4583 41.9473 16.3346 41.9016 16.2206C41.8559 16.1066 41.7813 16.0062 41.685 15.9292C41.5886 15.8522 41.4738 15.8012 41.3517 15.7811C41.2296 15.761 41.1044 15.7725 40.9881 15.8146Z"
              fill="white"></path>
        <path d="M45.594 17.1495C43.9689 17.6123 42.7868 18.9976 42.7569 21.2758L42.709 24.8562L44.37 24.3846L44.4178 20.8041C44.4178 19.7243 44.759 19.1192 45.57 18.8878C46.3811 18.6564 46.7103 19.0777 46.6953 20.1574L46.6474 23.7379L48.3084 23.2662L48.3563 19.6858C48.3862 17.4076 47.219 16.6897 45.594 17.1495Z"
              fill="white"></path>
    </g>
    <defs>
        <clipPath id="clip0_514_2083">
            <rect width="50" height="42" fill="white" transform="translate(5 9)"></rect>
        </clipPath>
    </defs>
</svg>
