<svg width="20" height="20" viewBox="0 0 20 20" fill="none" xmlns="http://www.w3.org/2000/svg">
    <path d="M3.25 9.99992C3.25 8.57492 4.40833 7.41658 5.83333 7.41658H9.16666V5.83325H5.83333C3.53333 5.83325 1.66666 7.69992 1.66666 9.99992C1.66666 12.2999 3.53333 14.1666 5.83333 14.1666H9.16666V12.5833H5.83333C4.40833 12.5833 3.25 11.4249 3.25 9.99992ZM6.66666 10.8333H13.3333V9.16659H6.66666V10.8333ZM14.1667 5.83325H10.8333V7.41658H14.1667C15.5917 7.41658 16.75 8.57492 16.75 9.99992C16.75 11.4249 15.5917 12.5833 14.1667 12.5833H10.8333V14.1666H14.1667C16.4667 14.1666 18.3333 12.2999 18.3333 9.99992C18.3333 7.69992 16.4667 5.83325 14.1667 5.83325Z" fill="black"/>
</svg>
