<svg xmlns="http://www.w3.org/2000/svg" xmlns:xlink="http://www.w3.org/1999/xlink" viewBox="0 0 912 116.99">
    <defs>
        <style>
            .cls-1{fill:url(#무제_그라디언트_79);}.cls-2{fill:url(#무제_그라디언트_79-2);}.cls-3{fill:url(#무제_그라디언트_79-3);}.cls-4{fill:url(#무제_그라디언트_79-4);}.cls-5{fill:url(#무제_그라디언트_79-5);}.cls-6{fill:url(#무제_그라디언트_79-6);}.cls-7{fill:url(#무제_그라디언트_79-7);}.cls-8{fill:url(#무제_그라디언트_80);}.cls-9{fill:url(#무제_그라디언트_80-2);}
        </style>
        <linearGradient id="무제_그라디언트_79" x1="64.05" y1="1.47" x2="64.05" y2="116.01" gradientUnits="userSpaceOnUse">
            <stop offset="0" stop-color="#fdfdfc"/>
            <stop offset="0.48" stop-color="#fff"/>
            <stop offset="0.6" stop-color="#fefbf0"/>
            <stop offset="0.85" stop-color="#fbf0c9"/>
            <stop offset="1" stop-color="#f9e8ae"/>
        </linearGradient>
        <linearGradient id="무제_그라디언트_79-2" x1="161.09" y1="1.47" x2="161.09" y2="116.01" xlink:href="#무제_그라디언트_79"/>
        <linearGradient id="무제_그라디언트_79-3" x1="237.72" y1="0" x2="237.72" y2="116.99" xlink:href="#무제_그라디언트_79"/>
        <linearGradient id="무제_그라디언트_79-4" x1="341.47" y1="0" x2="341.47" y2="116.99" xlink:href="#무제_그라디언트_79"/>
        <linearGradient id="무제_그라디언트_79-5" x1="418.58" y1="1.47" x2="418.58" y2="116.01" xlink:href="#무제_그라디언트_79"/>
        <linearGradient id="무제_그라디언트_79-6" x1="499.87" y1="0.49" x2="499.87" y2="116.99" xlink:href="#무제_그라디언트_79"/>
        <linearGradient id="무제_그라디언트_79-7" x1="618.32" y1="1.47" x2="618.32" y2="116.01" xlink:href="#무제_그라디언트_79"/>
        <linearGradient id="무제_그라디언트_80" x1="759.97" x2="759.97" y2="116.01" gradientUnits="userSpaceOnUse">
            <stop offset="0" stop-color="#fae9b4"/>
            <stop offset="0.14" stop-color="#efdda2"/>
            <stop offset="0.43" stop-color="#d4bd74"/>
            <stop offset="0.5" stop-color="#ccb467"/>
            <stop offset="0.64" stop-color="#bda75f"/>
            <stop offset="0.9" stop-color="#96854b"/>
            <stop offset="1" stop-color="#867643"/>
        </linearGradient>
        <linearGradient id="무제_그라디언트_80-2" x1="861.67" y1="1.47" x2="861.67" y2="116.01" xlink:href="#무제_그라디언트_80"/>
    </defs>
    <g id="레이어_2" data-name="레이어 2">
        <g id="레이어_1-2" data-name="레이어 1">
            <path class="cls-1"
                  d="M98.36,116,98.2,48.2l-23,56.54H52.94L29.9,48.2V116H0V1.47H36.44l27.61,63.4L91.67,1.47H128.1V116Z"/>
            <path class="cls-2" d="M144.1,116V1.47h34V116Z"/>
            <path class="cls-3"
                  d="M289,13.24,276.45,39.38c-11.77-6.7-28.43-12.75-38.07-12.75-5.72,0-9.48,2-9.48,6.21,0,16.83,59.8,6.87,59.8,48.21,0,24.34-21.57,35.94-47.22,35.94-19.44,0-40.69-6.86-55.06-18.14L199.16,73C210.93,83,230,90.52,241.81,90.52c7.19,0,11.76-2.45,11.76-7.68,0-17.32-59.8-6.37-59.8-46.73C193.77,14.05,212.56,0,241.15,0,258.64,0,276.61,5.23,289,13.24Z"/>
            <path class="cls-4"
                  d="M392.78,13.24,380.2,39.38c-11.77-6.7-28.44-12.75-38.08-12.75-5.71,0-9.47,2-9.47,6.21,0,16.83,59.8,6.87,59.8,48.21,0,24.34-21.57,35.94-47.22,35.94-19.45,0-40.69-6.86-55.07-18.14L302.91,73c11.76,10,30.88,17.48,42.65,17.48,7.18,0,11.76-2.45,11.76-7.68,0-17.32-59.8-6.37-59.8-46.73C297.52,14.05,316.31,0,344.9,0,362.38,0,380.36,5.23,392.78,13.24Z"/>
            <path class="cls-5" d="M401.59,116V1.47h34V116Z"/>
            <path class="cls-6"
                  d="M551.58,58.66C551.58,96.24,533,117,500,117c-33.5,0-51.8-20.75-51.8-58.33,0-37.42,18.3-58.17,51.8-58.17C533,.49,551.58,21.24,551.58,58.66Zm-68.62,0c0,24.51,4.73,33.66,17,33.66,11.93,0,16.67-9.15,16.67-33.66s-4.74-33.5-16.67-33.5C487.69,25.16,483,34.15,483,58.66Z"/>
            <path class="cls-7" d="M643.73,116,595.2,52.29V116H564V1.47h29.08L641.6,65.52v-64h31V116Z"/>
            <path class="cls-8"
                  d="M803.35,30.56c0,12.9-9.31,25.65-21.89,38.56L761.52,89.54H805.8V116H718.06V94.44l40.19-42.15c5.4-5.72,9.64-12.26,9.64-16.83,0-5.07-3.59-7.85-10-7.85-9,0-20.26,5.56-31,14.55L714.14,17.65C729.66,6.7,745.84,0,763.16,0,786.19,0,803.35,12.25,803.35,30.56Z"/>
            <path class="cls-9"
                  d="M865.43,67.65v-23H897v23h15v25H897V116H865.43V92.65H811.35V70.1L846,1.47H878.5L846,67.65Z"/>
        </g>
    </g>
</svg>
