<svg width="16" height="16" viewBox="0 0 16 16" fill="none" xmlns="http://www.w3.org/2000/svg">
    <path d="M11.7656 0L10.6344 1.13125L12.4688 2.96563H12C7.14927 2.96563 3.2 6.9149 3.2 11.7656V12.5656H4.8V11.7656C4.8 7.77955 8.01393 4.56563 12 4.56563H12.4688L10.6344 6.4L11.7656 7.53125L15.5312 3.76562L11.7656 0ZM0 4.56563V5.36562V13.3656C0 14.6816 1.08402 15.7656 2.4 15.7656H13.6C14.916 15.7656 16 14.6816 16 13.3656V12.5656V11.7656H14.4V12.5656V13.3656C14.4 13.8176 14.052 14.1656 13.6 14.1656H2.4C1.94798 14.1656 1.6 13.8176 1.6 13.3656V5.36562V4.56563H0Z" fill="white"/>
</svg>
